<svg width="108px" height="24px" viewBox="0 0 108 24" version="1.1" xmlns="http://www.w3.org/2000/svg" xmlns:xlink="http://www.w3.org/1999/xlink">
    <title>Muster Logo</title>

    <g id="Page-1" stroke="none" stroke-width="1" fill="none" fill-rule="evenodd">
        <g id="Artboard-2" fill="currentColor">
            <g id="Group">
                <path d="M102.112,12.5027987 L103.328,7.54279867 C104.096,7.03079867 104.96,6.77479867 105.888,6.77479867 C106.752,6.77479867 107.456,6.87079867 108,7.09479867 L106.368,12.7587987 C105.696,12.5987987 105.024,12.5347987 104.352,12.5347987 C103.808,12.5347987 103.072,12.6307987 102.112,12.8227987 L102.112,12.5027987 Z" id="Muster-Copy"></path>
                <path d="M101.602151,7.09479867 L101.570151,20.5027987 C101.570151,20.7907987 101.602151,21.0147987 101.666151,21.1747987 C101.730151,21.3347987 101.922151,21.5587987 102.274151,21.8467987 C102.626151,22.1347987 103.138151,22.4227987 103.842151,22.7107987 L103.842151,23.0307987 L93.6021514,23.0307987 L93.6021514,22.7107987 C94.0821514,22.4227987 94.4661514,22.1347987 94.7221514,21.8467987 C94.9781514,21.5587987 95.1381514,21.3347987 95.1701514,21.1747987 C95.2021514,21.0147987 95.2341514,20.7907987 95.2341514,20.5027987 L95.2341514,10.5827987 C95.2341514,10.2307987 95.2341514,9.97479867 95.2021514,9.78279867 C95.1701514,9.59079867 95.1061514,9.33479867 95.0101514,9.01479867 C94.9141514,8.69479867 94.7541514,8.40679867 94.5301514,8.15079867 C94.3061514,7.89479867 93.9861514,7.63879867 93.6021514,7.41479867 L93.6021514,7.09479867 L101.602151,7.09479867 Z" id="Muster-Copy"></path>
                <path d="M85.6101572,7.09479867 C86.2181572,7.25479867 86.6021572,7.57479867 86.7941572,8.05479867 C86.9861572,8.53479867 87.0821572,9.36679867 87.0821572,10.5507987 C87.0821572,11.9267987 86.9541572,13.1747987 86.6661572,14.2947987 L83.7221572,14.6147987 L83.7221572,14.9347987 L92.3301572,14.9347987 C92.4581572,14.1667987 92.5221572,13.4627987 92.5221572,12.8547987 C92.5221572,11.7667987 92.3301572,10.8387987 91.9141572,10.0387987 C91.4981572,9.23879867 91.0181572,8.63079867 90.4741572,8.24679867 C89.9301572,7.86279867 89.2901572,7.54279867 88.5861572,7.31879867 C87.8821572,7.09479867 87.3061572,6.96679867 86.8581572,6.90279867 C86.4101572,6.83879867 85.9156494,6.77479867 85.0021572,6.77479867 C83.2421572,6.77479867 81.6741572,7.22279867 80.3301572,8.08679867 C78.9861572,8.95079867 77.9941572,10.0067987 77.3541572,11.2547987 C76.7141572,12.5027987 76.3941572,13.7827987 76.3941572,15.0947987 C76.3941572,17.6867987 77.1621572,19.7347987 78.6981572,21.2067987 C80.2341572,22.6787987 82.4101572,23.4147987 85.2261572,23.4147987 C86.9221572,23.4147987 88.3941572,22.9667987 89.6101572,22.0707987 C90.8261572,21.1747987 91.5941572,20.0867987 91.9461572,18.7747987 L91.9461572,18.4547987 C90.5701572,19.3187987 89.2261572,19.7347987 87.9141572,19.7347987 C86.2501572,19.7347987 85.0021572,19.1587987 84.1701572,18.0387987 C83.3381572,16.9187987 82.9221572,15.5107987 82.9221572,13.8147987 C82.9221572,11.6067987 83.0821572,9.97479867 83.4021572,8.91879867 C83.7221572,7.86279867 84.2341572,7.25479867 84.9701572,7.09479867 C85.1061554,7.06932068 85.2852478,7.01966858 85.6101572,7.09479867 Z" id="Combined-Shape"></path>
                <path d="M72.3665029,7.41479867 L75.4385029,7.41479867 L75.4385029,7.09479867 L72.3665029,7.09479867 L72.3665029,3.89479867 L72.0465029,3.89479867 L65.9665029,6.77479867 L64.5585029,7.09479867 L64.5585029,7.41479867 L65.9665029,7.41479867 L65.9665029,19.5747987 C65.9665029,22.1347987 67.3105029,23.4147987 69.9985029,23.4147987 C71.9185029,23.4147987 73.7425029,22.9987987 75.4385029,22.1347987 L75.4385029,21.8147987 C74.2545029,21.8467987 73.4545029,21.7507987 73.0385029,21.4947987 C72.6225029,21.2387987 72.3985029,20.5987987 72.3985029,19.6067987 L72.3665029,7.41479867 Z" id="Muster-Copy"></path>
                <path d="M57.9388115,20.8867987 C57.9388115,21.5907987 57.7148115,22.1347987 57.2668115,22.5187987 C56.8188115,22.9027987 56.2428115,23.0947987 55.5388115,23.0947987 C54.8348115,23.0947987 54.1628115,22.9347987 53.5228115,22.6147987 C52.8828115,22.2947987 52.3068115,21.8147987 51.7948115,21.1747987 C51.2828115,20.5347987 50.8668115,19.9907987 50.5788115,19.5427987 C50.2908115,19.0947987 49.9388115,18.5187987 49.5228115,17.7827987 L49.3948115,17.8467987 L49.8428115,22.7747987 C51.4108115,23.1907987 53.2988115,23.4147987 55.5068115,23.4147987 C57.0108115,23.4147987 58.2908115,23.2547987 59.3468115,22.9347987 C60.4028115,22.6147987 61.2028115,22.1667987 61.7468115,21.5907987 C62.2908115,21.0147987 62.6748115,20.4387987 62.8988115,19.8627987 C63.1228115,19.2867987 63.2188115,18.6787987 63.2188115,18.0067987 C63.2188115,16.9507987 62.9308115,16.0227987 62.3548115,15.2547987 C61.7788115,14.4867987 61.1068115,13.8787987 60.3068115,13.4307987 C59.5068115,12.9827987 58.7068115,12.5667987 57.9068115,12.1827987 C57.1068115,11.7987987 56.4348115,11.3507987 55.8588115,10.8387987 C55.2828115,10.3267987 54.9948115,9.75079867 54.9948115,9.11079867 C54.9948115,8.43879867 55.2188115,7.92679867 55.6668115,7.60679867 C56.1148115,7.28679867 56.6588115,7.12679867 57.2668115,7.12679867 C58.1628115,7.12679867 58.8988115,7.54279867 59.4748115,8.34279867 C60.0508115,9.14279867 60.5948115,10.4867987 61.1388115,12.3747987 L61.3628115,12.3107987 L62.7388115,7.79879867 C61.0428115,7.15879867 59.0908115,6.83879867 56.8828115,6.83879867 C54.2908115,6.83879867 52.3708115,7.31879867 51.1228115,8.27879867 C49.8748115,9.23879867 49.2348115,10.4227987 49.2348115,11.7987987 C49.2348115,12.8547987 49.5228115,13.7827987 50.0988115,14.5827987 C50.6748115,15.3827987 51.3788115,16.0227987 52.2108115,16.4707987 C53.0428115,16.9187987 53.8748115,17.3667987 54.7068115,17.7827987 C55.5388115,18.1987987 56.2428115,18.6787987 56.8188115,19.1907987 C57.0918037,19.4334584 57.4479176,19.745857 57.6919642,20.1154133 C57.9360109,20.4849696 57.9388115,20.8867987 57.9388115,20.8867987 Z" id="Muster-Copy"></path>
                <path d="M39.6150742,23.0947987 L39.5510742,9.65479867 C39.5510742,9.36679867 39.5510742,9.14279867 39.5190742,8.98279867 C39.4870742,8.82279867 39.3590742,8.59879867 39.1030742,8.31079867 C38.8470742,8.02279867 38.4630742,7.73479867 37.9830742,7.44679867 L37.9830742,7.12679867 L45.9830742,7.12679867 L45.9830742,19.6067987 C45.9830742,19.9587987 45.9830742,20.2147987 46.0150742,20.4067987 C46.0470742,20.5987987 46.1110742,20.8547987 46.2070742,21.1747987 C46.3030742,21.4947987 46.4630742,21.7827987 46.6870742,22.0387987 C46.9110742,22.2947987 47.2310742,22.5507987 47.6150742,22.7747987 L47.6150742,23.0947987 L39.6150742,23.0947987 Z" id="Muster-Copy"></path>
                <path d="M39.0390742,19.8947987 L36.4150742,22.6467987 C35.4870742,23.1587987 34.5910742,23.4147987 33.6950742,23.4147987 C32.3830742,23.4147987 31.3270742,22.9987987 30.5590742,22.1667987 C29.7910742,21.3347987 29.4070742,20.1507987 29.4070742,18.5827987 L29.4070742,9.62279867 C29.4070742,9.33479867 29.4070742,9.11079867 29.3750742,8.95079867 C29.3430742,8.79079867 29.2150742,8.56679867 28.9590742,8.27879867 C28.7030742,7.99079867 28.3190742,7.70279867 27.8390742,7.41479867 L27.8390742,7.09479867 L35.8390742,7.09479867 L35.8390742,18.1347987 C35.8390742,18.7427987 35.9670742,19.1907987 36.1910742,19.4787987 C36.4150742,19.7667987 36.8310742,19.8947987 37.4390742,19.8947987 C38.0150742,19.8947987 38.5590742,19.7987987 39.0390742,19.5747987 L39.0390742,19.8947987 Z" id="Muster-Copy"></path>
                <path d="M18.336,1.30279867 L18.336,20.5667987 C18.336,20.8547987 18.304,21.0787987 18.272,21.2387987 C18.24,21.3987987 18.08,21.6227987 17.824,21.9107987 C17.568,22.1987987 17.184,22.4867987 16.704,22.7747987 L16.704,23.0947987 L26.624,23.0947987 L26.624,22.7747987 C26.144,22.4867987 25.76,22.1987987 25.504,21.9107987 C25.248,21.6227987 25.088,21.3987987 25.056,21.2387987 C25.024,21.0787987 24.992,20.8547987 24.992,20.5667987 L24.992,2.64679867 C24.992,2.35879867 24.992,2.13479867 25.024,1.97479867 C25.056,1.81479867 25.184,1.59079867 25.44,1.30279867 C25.696,1.01479867 26.08,0.726798669 26.56,0.438798669 L26.656,0.0867986693 L18.336,0.0867986693 L14.362115,13.1152149 L8.416,0.0867986693 C8.416,0.0867986693 4.15109252,-0.0849999124 0.128,0.0547986693 C0.007092516,0.0590000876 0.128,0.374798669 0.128,0.374798669 C0.928,0.662798669 1.472,0.950798669 1.76,1.23879867 C2.048,1.52679867 2.304,2.07079867 2.656,2.87079867 L11.456,23.4467987 L11.776,23.4467987 L18.336,1.30279867 L18.336,1.30279867 Z" id="Combined-Shape"></path>
                <path d="M2.51180003,21.0213674 C2.5297969,21.2208654 2.5646803,21.3761593 2.624,21.4947987 C2.72,21.6867987 3.04,21.9107987 3.584,22.1667987 C4.128,22.4227987 4.96,22.6467987 6.08,22.8387987 L6.08,23.1587987 L0,23.1587987 L0,22.8387987 C0.896,22.5507987 1.504,22.2307987 1.792,21.9107987 C2.03109069,21.6451424 2.18196477,21.4897568 2.22631343,21.1333919 C2.23538557,21.0604926 2.51180003,21.0213674 2.51180003,21.0213674 Z" id="Muster-Copy"></path>
            </g>
        </g>
    </g>
</svg>
