<svg version="1.1" id="Layer_1" xmlns="http://www.w3.org/2000/svg" xmlns:xlink="http://www.w3.org/1999/xlink" x="0px" y="0px" viewBox="0 0 396.7 388.6" enable-background="new 0 0 396.7 388.6" xml:space="preserve">
    <path fill="#83D0ED" d="M215.2,0.1L74.2,72c-1.1,0.6-1,2.2,0.1,2.7l101,40.7l2,0.3V51.4l-2-1.1l41.2-48.4
    C217.3,0.9,216.3-0.4,215.2,0.1"></path>
    <path fill="#3C3B4C" d="M74.9,253.4l118.6-76.7l2-2v-51.7l-2-0.3l-121,127.8C71.1,252.2,73.1,254.6,74.9,253.4"></path>
    <path fill="#29AAE1" d="M193.5,176.8l121.3-78.4c1-0.7,0.8-2.2-0.4-2.6L175.3,50.3v65.2l18.2,7.4V176.8z"></path>
    <polygon fill="#3C3B4C" points="65.8,379.8 64.8,388.1 38.8,388.1 38.8,343.3 49.2,343.3 49.2,379.8 "></polygon>
    <polygon fill="#3C3B4C" points="82.7,351.3 82.7,361.8 96.8,361.8 95.8,369.4 82.7,369.4 82.7,380.1 101.1,380.1 100.1,388.1
    72.3,388.1 72.3,343.3 101.1,343.3 100.1,351.3 "></polygon>
    <rect x="108.8" y="343.3" fill="#3C3B4C" width="10.5" height="44.8"></rect>
    <polygon fill="#3C3B4C" points="213.9,343.3 213.9,388.1 203.4,388.1 203.4,369.2 185.2,369.2 185.2,388.1 174.8,388.1 174.8,343.3
    185.2,343.3 185.2,362 203.4,362 203.4,343.3 "></polygon>
    <path fill="#3C3B4C" d="M264.4,365.7c0,3.2-0.6,6.2-1.7,9c-1.1,2.7-2.7,5.1-4.7,7.1c-2,2-4.5,3.6-7.3,4.7s-6,1.7-9.5,1.7h-17.4
    v-44.8h17.4c3.5,0,6.7,0.6,9.5,1.7s5.3,2.7,7.3,4.7c2,2,3.6,4.4,4.7,7.1C263.9,359.5,264.4,362.5,264.4,365.7 M253.8,365.7
    c0-2.2-0.3-4.2-0.9-6c-0.6-1.8-1.4-3.3-2.5-4.5c-1.1-1.2-2.4-2.2-4-2.9c-1.6-0.7-3.3-1-5.3-1h-6.9v28.8h6.9c2,0,3.8-0.3,5.3-1
    c1.6-0.7,2.9-1.6,4-2.9c1.1-1.2,1.9-2.8,2.5-4.5C253.5,369.9,253.8,367.9,253.8,365.7"></path>
    <path fill="#3C3B4C" d="M315.8,365.7c0,3.2-0.6,6.3-1.7,9c-1.1,2.8-2.7,5.2-4.7,7.3c-2,2.1-4.5,3.7-7.3,4.8s-6,1.8-9.5,1.8
    c-3.5,0-6.7-0.6-9.5-1.8c-2.9-1.2-5.3-2.8-7.4-4.8c-2-2.1-3.6-4.5-4.7-7.3c-1.1-2.8-1.7-5.8-1.7-9c0-3.2,0.6-6.3,1.7-9
    c1.1-2.8,2.7-5.2,4.7-7.3c2-2,4.5-3.7,7.4-4.8c2.9-1.2,6-1.8,9.5-1.8c3.5,0,6.7,0.6,9.5,1.8c2.9,1.2,5.3,2.8,7.3,4.8
    c2,2.1,3.6,4.5,4.7,7.3C315.2,359.5,315.8,362.5,315.8,365.7 M305.1,365.7c0-2.2-0.3-4.2-0.9-6c-0.6-1.8-1.4-3.3-2.5-4.5
    c-1.1-1.2-2.4-2.2-4-2.8c-1.6-0.7-3.3-1-5.3-1c-2,0-3.8,0.3-5.4,1c-1.6,0.7-2.9,1.6-4,2.8c-1.1,1.2-1.9,2.7-2.5,4.5
    c-0.6,1.8-0.9,3.8-0.9,6c0,2.2,0.3,4.2,0.9,6c0.6,1.8,1.4,3.3,2.5,4.5c1.1,1.2,2.4,2.2,4,2.8c1.6,0.6,3.4,1,5.4,1c2,0,3.8-0.3,5.3-1
    c1.6-0.6,2.9-1.6,4-2.8c1.1-1.2,1.9-2.7,2.5-4.5C304.8,369.9,305.1,367.9,305.1,365.7"></path>
    <path fill="#3C3B4C" d="M159.6,354.2c-0.8-0.5-1.6-0.9-2.3-1.3c-0.7-0.4-1.5-0.7-2.2-0.9c-0.8-0.2-1.6-0.4-2.4-0.5
    c-0.8-0.1-1.8-0.2-2.8-0.2c-1.9,0-3.7,0.3-5.3,1c-1.6,0.7-2.9,1.7-4,2.9c-1.1,1.3-1.9,2.8-2.5,4.5c-0.6,1.8-0.9,3.7-0.9,5.9
    c0,2.4,0.3,4.5,1,6.3c0.7,1.8,1.6,3.4,2.8,4.7c1.2,1.3,2.6,2.2,4.3,2.9c1.7,0.7,3.5,1,5.5,1c1.3,0,2.4-0.1,3.4-0.4c1-0.2,2-0.6,3-1
    v-6.8h-4l-4.9-7.6h18.3v18.9c-2.3,1.7-4.7,2.9-7.3,3.7c-2.6,0.8-5.3,1.1-8.1,1.1c-3.7,0-7-0.6-10.1-1.7c-3-1.2-5.6-2.8-7.8-4.8
    c-2.2-2-3.8-4.5-5-7.3c-1.2-2.8-1.8-5.8-1.8-9.1c0-3.3,0.6-6.4,1.7-9.2c1.1-2.8,2.7-5.2,4.8-7.2c2.1-2,4.5-3.6,7.5-4.7
    c2.9-1.1,6.2-1.7,9.8-1.7c1.9,0,3.6,0.2,5.3,0.5c1.6,0.3,3.2,0.7,4.5,1.3c1.4,0.5,2.6,1.2,3.8,1.9c1.1,0.7,2.2,1.5,3.1,2.4l-3,4.6
    l-1.6,2.5L159.6,354.2z"></path>
    <path fill="#3C3B4C" d="M7.2,377.2c0.6,0.4,1.3,0.8,2.1,1.3c0.8,0.5,1.7,0.9,2.7,1.3c1,0.4,2.2,0.6,3.6,0.6c1.9,0,3.4-0.4,4.4-1.2
    c1-0.8,1.6-2.1,1.6-4c0-1-0.3-1.9-0.9-2.6c-0.6-0.7-1.3-1.2-2.3-1.6c-0.9-0.4-2-0.8-3.2-1.1c-1.2-0.3-2.4-0.7-3.7-1.1
    c-1.3-0.4-2.5-0.9-3.7-1.5c-1.2-0.6-2.2-1.4-3.2-2.3c-0.9-1-1.7-2.1-2.3-3.6c-0.6-1.4-0.9-3.2-0.9-5.3c0-1.7,0.3-3.3,1-4.9
    c0.7-1.6,1.7-3,3-4.3c1.3-1.2,2.9-2.2,4.8-3c1.9-0.7,4.1-1.1,6.5-1.1c1.4,0,2.7,0.1,4,0.3c1.3,0.2,2.5,0.5,3.7,1
    c1.2,0.4,2.3,0.9,3.3,1.5c1,0.6,1.9,1.2,2.7,2l-2.6,4.8l-1.3,2.5l-2.5-1.4c-0.5-0.3-1.2-0.6-1.8-1c-0.7-0.4-1.5-0.7-2.4-1
    c-0.9-0.3-1.9-0.4-3-0.4c-1.9,0-3.4,0.4-4.4,1.2c-1,0.8-1.4,2-1.4,3.4c0,0.9,0.3,1.7,0.9,2.2c0.6,0.6,1.3,1.1,2.3,1.5
    c0.9,0.4,2,0.8,3.2,1.2c1.2,0.4,2.4,0.8,3.7,1.2c1.2,0.4,2.5,1,3.7,1.6c1.2,0.6,2.3,1.4,3.2,2.3c0.9,0.9,1.7,2,2.3,3.4
    c0.6,1.3,0.9,2.9,0.9,4.8c0,2.1-0.4,4-1.1,5.8c-0.7,1.8-1.8,3.4-3.1,4.7c-1.4,1.3-3,2.4-5,3.2c-2,0.8-4.3,1.2-6.8,1.2
    c-1.4,0-2.8-0.1-4.3-0.4c-1.4-0.3-2.8-0.7-4.2-1.2s-2.6-1.1-3.8-1.9c-1.2-0.7-2.2-1.5-3.1-2.4l3.1-4.9l1.5-2.4L7.2,377.2z"></path>
    <path fill="#3C3B4C" d="M353.6,354.2c-0.8-0.5-1.6-0.9-2.3-1.3c-0.7-0.4-1.5-0.7-2.2-0.9c-0.8-0.2-1.6-0.4-2.4-0.5
    c-0.8-0.1-1.8-0.2-2.8-0.2c-1.9,0-3.7,0.3-5.3,1c-1.6,0.7-2.9,1.7-4,2.9c-1.1,1.3-1.9,2.8-2.5,4.5c-0.6,1.8-0.9,3.7-0.9,5.9
    c0,2.4,0.3,4.5,1,6.3c0.7,1.8,1.6,3.4,2.8,4.7c1.2,1.3,2.6,2.2,4.3,2.9c1.7,0.7,3.5,1,5.5,1c1.3,0,2.4-0.1,3.4-0.4c1-0.2,2-0.6,3-1
    v-6.8h-4l-4.9-7.6h18.3v18.9c-2.3,1.7-4.7,2.9-7.3,3.7c-2.6,0.8-5.3,1.1-8.1,1.1c-3.7,0-7-0.6-10.1-1.7c-3-1.2-5.6-2.8-7.8-4.8
    c-2.2-2-3.8-4.5-5-7.3c-1.2-2.8-1.8-5.8-1.8-9.1c0-3.3,0.6-6.4,1.7-9.2c1.1-2.8,2.7-5.2,4.8-7.2c2.1-2,4.5-3.6,7.5-4.7
    c2.9-1.1,6.2-1.7,9.8-1.7c1.9,0,3.6,0.2,5.3,0.5c1.6,0.3,3.2,0.7,4.5,1.3c1.4,0.5,2.6,1.2,3.8,1.9c1.1,0.7,2.2,1.5,3.1,2.4l-3,4.6
    l-1.6,2.5L353.6,354.2z"></path>
    <path fill="#3C3B4C" d="M372.5,377.2c0.6,0.4,1.3,0.8,2.1,1.3c0.8,0.5,1.7,0.9,2.7,1.3c1,0.4,2.2,0.6,3.6,0.6c1.9,0,3.4-0.4,4.4-1.2
    c1-0.8,1.6-2.1,1.6-4c0-1-0.3-1.9-0.9-2.6c-0.6-0.7-1.3-1.2-2.3-1.6c-0.9-0.4-2-0.8-3.2-1.1c-1.2-0.3-2.4-0.7-3.7-1.1
    c-1.3-0.4-2.5-0.9-3.7-1.5c-1.2-0.6-2.2-1.4-3.2-2.3c-0.9-1-1.7-2.1-2.3-3.6c-0.6-1.4-0.9-3.2-0.9-5.3c0-1.7,0.3-3.3,1-4.9
    c0.7-1.6,1.7-3,3-4.3c1.3-1.2,2.9-2.2,4.8-3c1.9-0.7,4.1-1.1,6.5-1.1c1.4,0,2.7,0.1,4,0.3c1.3,0.2,2.5,0.5,3.7,1
    c1.2,0.4,2.3,0.9,3.3,1.5c1,0.6,1.9,1.2,2.7,2l-2.6,4.8l-1.3,2.5l-2.5-1.4c-0.5-0.3-1.2-0.6-1.8-1c-0.7-0.4-1.5-0.7-2.4-1
    c-0.9-0.3-1.9-0.4-3-0.4c-1.9,0-3.4,0.4-4.4,1.2c-1,0.8-1.4,2-1.4,3.4c0,0.9,0.3,1.7,0.9,2.2c0.6,0.6,1.3,1.1,2.3,1.5
    c0.9,0.4,2,0.8,3.2,1.2c1.2,0.4,2.4,0.8,3.7,1.2c1.2,0.4,2.5,1,3.7,1.6c1.2,0.6,2.3,1.4,3.2,2.3c0.9,0.9,1.7,2,2.3,3.4
    c0.6,1.3,0.9,2.9,0.9,4.8c0,2.1-0.4,4-1.1,5.8c-0.7,1.8-1.8,3.4-3.1,4.7c-1.4,1.3-3,2.4-5,3.2c-2,0.8-4.3,1.2-6.8,1.2
    c-1.4,0-2.8-0.1-4.3-0.4c-1.4-0.3-2.8-0.7-4.2-1.2c-1.4-0.5-2.6-1.1-3.8-1.9c-1.2-0.7-2.2-1.5-3.1-2.4l3.1-4.9l1.5-2.4L372.5,377.2z
    "></path>
  </svg>
